<mxfile host="app.diagrams.net" modified="2023-06-19T15:31:55.061Z" agent="Mozilla/5.0 (Windows NT 10.0; Win64; x64) AppleWebKit/537.36 (KHTML, like Gecko) Chrome/114.0.0.0 Safari/537.36" etag="UNNnQROa8iV4pQYjHYdw" version="21.5.0" type="device">
  <diagram name="Page-1" id="4NttJN0XThCtxKq1Q5k7">
    <mxGraphModel dx="794" dy="1107" grid="1" gridSize="10" guides="1" tooltips="1" connect="1" arrows="1" fold="1" page="1" pageScale="1" pageWidth="850" pageHeight="1100" math="0" shadow="0">
      <root>
        <mxCell id="0" />
        <mxCell id="1" parent="0" />
        <mxCell id="UZr9VpXuxcfmV2gfaOis-1" value="" style="rounded=0;whiteSpace=wrap;html=1;" parent="1" vertex="1">
          <mxGeometry x="80" y="120" width="370" height="580" as="geometry" />
        </mxCell>
        <mxCell id="UZr9VpXuxcfmV2gfaOis-2" value="Gr&amp;nbsp; &amp;nbsp;o&amp;nbsp; upTripper" style="html=1;shadow=0;dashed=0;fillColor=#F8F9FA;strokeColor=none;fontSize=16;fontColor=#181819;align=left;spacing=15;" parent="1" vertex="1">
          <mxGeometry x="80" y="120" width="370" height="50" as="geometry" />
        </mxCell>
        <mxCell id="UZr9VpXuxcfmV2gfaOis-4" value="Username" style="fillColor=none;strokeColor=none;fontSize=14;fontColor=#7C7C7D;align=center;" parent="UZr9VpXuxcfmV2gfaOis-2" vertex="1">
          <mxGeometry width="50" height="40" relative="1" as="geometry">
            <mxPoint x="300" y="5" as="offset" />
          </mxGeometry>
        </mxCell>
        <mxCell id="UZr9VpXuxcfmV2gfaOis-10" value="" style="html=1;verticalLabelPosition=bottom;align=center;labelBackgroundColor=#ffffff;verticalAlign=top;strokeWidth=2;strokeColor=#0080F0;shadow=0;dashed=0;shape=mxgraph.ios7.icons.location;" parent="UZr9VpXuxcfmV2gfaOis-2" vertex="1">
          <mxGeometry x="30" y="10.158333333333335" width="28.24" height="29.683333333333334" as="geometry" />
        </mxCell>
        <mxCell id="UZr9VpXuxcfmV2gfaOis-14" value="" style="html=1;verticalLabelPosition=bottom;align=center;labelBackgroundColor=#ffffff;verticalAlign=top;strokeWidth=2;strokeColor=#0080F0;shadow=0;dashed=0;shape=mxgraph.ios7.icons.user;" parent="UZr9VpXuxcfmV2gfaOis-2" vertex="1">
          <mxGeometry x="260" y="10.153333333333334" width="30" height="29.683333333333334" as="geometry" />
        </mxCell>
        <mxCell id="UZr9VpXuxcfmV2gfaOis-40" value="" style="endArrow=classic;html=1;rounded=0;entryX=0;entryY=0.043;entryDx=0;entryDy=0;entryPerimeter=0;exitX=1;exitY=1;exitDx=0;exitDy=0;" parent="1" source="UZr9VpXuxcfmV2gfaOis-4" edge="1">
          <mxGeometry width="50" height="50" relative="1" as="geometry">
            <mxPoint x="410" y="130" as="sourcePoint" />
            <mxPoint x="580" y="129.8900000000001" as="targetPoint" />
          </mxGeometry>
        </mxCell>
        <mxCell id="UZr9VpXuxcfmV2gfaOis-43" value="click" style="edgeLabel;html=1;align=center;verticalAlign=middle;resizable=0;points=[];" parent="UZr9VpXuxcfmV2gfaOis-40" vertex="1" connectable="0">
          <mxGeometry x="0.6213" y="3" relative="1" as="geometry">
            <mxPoint as="offset" />
          </mxGeometry>
        </mxCell>
        <mxCell id="UZr9VpXuxcfmV2gfaOis-44" value="" style="endArrow=classic;html=1;rounded=0;" parent="1" edge="1">
          <mxGeometry width="50" height="50" relative="1" as="geometry">
            <mxPoint x="140" y="130" as="sourcePoint" />
            <mxPoint x="190" y="80" as="targetPoint" />
          </mxGeometry>
        </mxCell>
        <mxCell id="UZr9VpXuxcfmV2gfaOis-45" value="Clicking on logo always redirects home" style="text;html=1;strokeColor=none;fillColor=none;align=center;verticalAlign=middle;whiteSpace=wrap;rounded=0;" parent="1" vertex="1">
          <mxGeometry x="160" y="50" width="150" height="30" as="geometry" />
        </mxCell>
        <mxCell id="UZr9VpXuxcfmV2gfaOis-50" value="&lt;font style=&quot;font-size: 19px;&quot;&gt;Settings&lt;/font&gt;" style="text;html=1;strokeColor=none;fillColor=none;align=center;verticalAlign=middle;whiteSpace=wrap;rounded=0;" parent="1" vertex="1">
          <mxGeometry x="80" y="180" width="140" height="30" as="geometry" />
        </mxCell>
        <mxCell id="f01kgrabDKH01E-QRtvR-6" value="" style="group" parent="1" vertex="1" connectable="0">
          <mxGeometry x="105" y="250" width="320" height="30" as="geometry" />
        </mxCell>
        <mxCell id="f01kgrabDKH01E-QRtvR-1" value="" style="fillColor=#36B37E;strokeColor=none;rounded=1;arcSize=50;sketch=0;hachureGap=4;pointerEvents=0;fontFamily=Architects Daughter;fontSource=https%3A%2F%2Ffonts.googleapis.com%2Fcss%3Ffamily%3DArchitects%2BDaughter;fontSize=20;" parent="f01kgrabDKH01E-QRtvR-6" vertex="1">
          <mxGeometry x="280" y="10" width="40" height="20" as="geometry" />
        </mxCell>
        <mxCell id="f01kgrabDKH01E-QRtvR-2" value="" style="shape=ellipse;strokeColor=none;fillColor=#ffffff;sketch=0;hachureGap=4;pointerEvents=0;fontFamily=Architects Daughter;fontSource=https%3A%2F%2Ffonts.googleapis.com%2Fcss%3Ffamily%3DArchitects%2BDaughter;fontSize=20;" parent="f01kgrabDKH01E-QRtvR-1" vertex="1">
          <mxGeometry x="1" y="0.5" width="16" height="16" relative="1" as="geometry">
            <mxPoint x="-18" y="-8" as="offset" />
          </mxGeometry>
        </mxCell>
        <mxCell id="f01kgrabDKH01E-QRtvR-3" value="" style="html=1;shadow=0;dashed=0;shape=mxgraph.atlassian.check;strokeColor=#ffffff;strokeWidth=2;sketch=1;hachureGap=4;pointerEvents=0;fontFamily=Architects Daughter;fontSource=https%3A%2F%2Ffonts.googleapis.com%2Fcss%3Ffamily%3DArchitects%2BDaughter;fontSize=20;" parent="f01kgrabDKH01E-QRtvR-1" vertex="1">
          <mxGeometry y="0.5" width="10" height="8" relative="1" as="geometry">
            <mxPoint x="6" y="-5" as="offset" />
          </mxGeometry>
        </mxCell>
        <mxCell id="f01kgrabDKH01E-QRtvR-4" value="Users accept your friendship request" style="text;html=1;strokeColor=none;fillColor=none;align=left;verticalAlign=middle;whiteSpace=wrap;rounded=0;" parent="f01kgrabDKH01E-QRtvR-6" vertex="1">
          <mxGeometry width="260" height="30" as="geometry" />
        </mxCell>
        <mxCell id="f01kgrabDKH01E-QRtvR-7" value="" style="group" parent="1" vertex="1" connectable="0">
          <mxGeometry x="105" y="290" width="320" height="30" as="geometry" />
        </mxCell>
        <mxCell id="f01kgrabDKH01E-QRtvR-8" value="" style="fillColor=#36B37E;strokeColor=none;rounded=1;arcSize=50;sketch=0;hachureGap=4;pointerEvents=0;fontFamily=Architects Daughter;fontSource=https%3A%2F%2Ffonts.googleapis.com%2Fcss%3Ffamily%3DArchitects%2BDaughter;fontSize=20;" parent="f01kgrabDKH01E-QRtvR-7" vertex="1">
          <mxGeometry x="280" y="10" width="40" height="20" as="geometry" />
        </mxCell>
        <mxCell id="f01kgrabDKH01E-QRtvR-9" value="" style="shape=ellipse;strokeColor=none;fillColor=#ffffff;sketch=0;hachureGap=4;pointerEvents=0;fontFamily=Architects Daughter;fontSource=https%3A%2F%2Ffonts.googleapis.com%2Fcss%3Ffamily%3DArchitects%2BDaughter;fontSize=20;" parent="f01kgrabDKH01E-QRtvR-8" vertex="1">
          <mxGeometry x="1" y="0.5" width="16" height="16" relative="1" as="geometry">
            <mxPoint x="-18" y="-8" as="offset" />
          </mxGeometry>
        </mxCell>
        <mxCell id="f01kgrabDKH01E-QRtvR-10" value="" style="html=1;shadow=0;dashed=0;shape=mxgraph.atlassian.check;strokeColor=#ffffff;strokeWidth=2;sketch=1;hachureGap=4;pointerEvents=0;fontFamily=Architects Daughter;fontSource=https%3A%2F%2Ffonts.googleapis.com%2Fcss%3Ffamily%3DArchitects%2BDaughter;fontSize=20;" parent="f01kgrabDKH01E-QRtvR-8" vertex="1">
          <mxGeometry y="0.5" width="10" height="8" relative="1" as="geometry">
            <mxPoint x="6" y="-5" as="offset" />
          </mxGeometry>
        </mxCell>
        <mxCell id="f01kgrabDKH01E-QRtvR-11" value="You receive new friendship requests" style="text;html=1;strokeColor=none;fillColor=none;align=left;verticalAlign=middle;whiteSpace=wrap;rounded=0;" parent="f01kgrabDKH01E-QRtvR-7" vertex="1">
          <mxGeometry width="260" height="30" as="geometry" />
        </mxCell>
        <mxCell id="f01kgrabDKH01E-QRtvR-12" value="Email notifications" style="text;html=1;strokeColor=none;fillColor=none;align=center;verticalAlign=middle;whiteSpace=wrap;rounded=0;fontStyle=1" parent="1" vertex="1">
          <mxGeometry x="100" y="220" width="120" height="30" as="geometry" />
        </mxCell>
        <mxCell id="f01kgrabDKH01E-QRtvR-13" value="" style="group" parent="1" vertex="1" connectable="0">
          <mxGeometry x="105" y="330" width="320" height="30" as="geometry" />
        </mxCell>
        <mxCell id="f01kgrabDKH01E-QRtvR-14" value="" style="fillColor=#36B37E;strokeColor=none;rounded=1;arcSize=50;sketch=0;hachureGap=4;pointerEvents=0;fontFamily=Architects Daughter;fontSource=https%3A%2F%2Ffonts.googleapis.com%2Fcss%3Ffamily%3DArchitects%2BDaughter;fontSize=20;" parent="f01kgrabDKH01E-QRtvR-13" vertex="1">
          <mxGeometry x="280" y="10" width="40" height="20" as="geometry" />
        </mxCell>
        <mxCell id="f01kgrabDKH01E-QRtvR-15" value="" style="shape=ellipse;strokeColor=none;fillColor=#ffffff;sketch=0;hachureGap=4;pointerEvents=0;fontFamily=Architects Daughter;fontSource=https%3A%2F%2Ffonts.googleapis.com%2Fcss%3Ffamily%3DArchitects%2BDaughter;fontSize=20;" parent="f01kgrabDKH01E-QRtvR-14" vertex="1">
          <mxGeometry x="1" y="0.5" width="16" height="16" relative="1" as="geometry">
            <mxPoint x="-18" y="-8" as="offset" />
          </mxGeometry>
        </mxCell>
        <mxCell id="f01kgrabDKH01E-QRtvR-16" value="" style="html=1;shadow=0;dashed=0;shape=mxgraph.atlassian.check;strokeColor=#ffffff;strokeWidth=2;sketch=1;hachureGap=4;pointerEvents=0;fontFamily=Architects Daughter;fontSource=https%3A%2F%2Ffonts.googleapis.com%2Fcss%3Ffamily%3DArchitects%2BDaughter;fontSize=20;" parent="f01kgrabDKH01E-QRtvR-14" vertex="1">
          <mxGeometry y="0.5" width="10" height="8" relative="1" as="geometry">
            <mxPoint x="6" y="-5" as="offset" />
          </mxGeometry>
        </mxCell>
        <mxCell id="f01kgrabDKH01E-QRtvR-17" value="Poll requires your input" style="text;html=1;strokeColor=none;fillColor=none;align=left;verticalAlign=middle;whiteSpace=wrap;rounded=0;" parent="f01kgrabDKH01E-QRtvR-13" vertex="1">
          <mxGeometry width="260" height="30" as="geometry" />
        </mxCell>
        <mxCell id="f01kgrabDKH01E-QRtvR-18" value="" style="group" parent="1" vertex="1" connectable="0">
          <mxGeometry x="105" y="370" width="320" height="30" as="geometry" />
        </mxCell>
        <mxCell id="f01kgrabDKH01E-QRtvR-19" value="" style="fillColor=#36B37E;strokeColor=none;rounded=1;arcSize=50;sketch=0;hachureGap=4;pointerEvents=0;fontFamily=Architects Daughter;fontSource=https%3A%2F%2Ffonts.googleapis.com%2Fcss%3Ffamily%3DArchitects%2BDaughter;fontSize=20;" parent="f01kgrabDKH01E-QRtvR-18" vertex="1">
          <mxGeometry x="280" y="10" width="40" height="20" as="geometry" />
        </mxCell>
        <mxCell id="f01kgrabDKH01E-QRtvR-20" value="" style="shape=ellipse;strokeColor=none;fillColor=#ffffff;sketch=0;hachureGap=4;pointerEvents=0;fontFamily=Architects Daughter;fontSource=https%3A%2F%2Ffonts.googleapis.com%2Fcss%3Ffamily%3DArchitects%2BDaughter;fontSize=20;" parent="f01kgrabDKH01E-QRtvR-19" vertex="1">
          <mxGeometry x="1" y="0.5" width="16" height="16" relative="1" as="geometry">
            <mxPoint x="-18" y="-8" as="offset" />
          </mxGeometry>
        </mxCell>
        <mxCell id="f01kgrabDKH01E-QRtvR-21" value="" style="html=1;shadow=0;dashed=0;shape=mxgraph.atlassian.check;strokeColor=#ffffff;strokeWidth=2;sketch=1;hachureGap=4;pointerEvents=0;fontFamily=Architects Daughter;fontSource=https%3A%2F%2Ffonts.googleapis.com%2Fcss%3Ffamily%3DArchitects%2BDaughter;fontSize=20;" parent="f01kgrabDKH01E-QRtvR-19" vertex="1">
          <mxGeometry y="0.5" width="10" height="8" relative="1" as="geometry">
            <mxPoint x="6" y="-5" as="offset" />
          </mxGeometry>
        </mxCell>
        <mxCell id="f01kgrabDKH01E-QRtvR-22" value="Your friends request your input" style="text;html=1;strokeColor=none;fillColor=none;align=left;verticalAlign=middle;whiteSpace=wrap;rounded=0;" parent="f01kgrabDKH01E-QRtvR-18" vertex="1">
          <mxGeometry width="260" height="30" as="geometry" />
        </mxCell>
        <mxCell id="f01kgrabDKH01E-QRtvR-23" value="" style="group" parent="1" vertex="1" connectable="0">
          <mxGeometry x="105" y="410" width="320" height="30" as="geometry" />
        </mxCell>
        <mxCell id="f01kgrabDKH01E-QRtvR-24" value="" style="fillColor=#36B37E;strokeColor=none;rounded=1;arcSize=50;sketch=0;hachureGap=4;pointerEvents=0;fontFamily=Architects Daughter;fontSource=https%3A%2F%2Ffonts.googleapis.com%2Fcss%3Ffamily%3DArchitects%2BDaughter;fontSize=20;" parent="f01kgrabDKH01E-QRtvR-23" vertex="1">
          <mxGeometry x="280" y="10" width="40" height="20" as="geometry" />
        </mxCell>
        <mxCell id="f01kgrabDKH01E-QRtvR-25" value="" style="shape=ellipse;strokeColor=none;fillColor=#ffffff;sketch=0;hachureGap=4;pointerEvents=0;fontFamily=Architects Daughter;fontSource=https%3A%2F%2Ffonts.googleapis.com%2Fcss%3Ffamily%3DArchitects%2BDaughter;fontSize=20;" parent="f01kgrabDKH01E-QRtvR-24" vertex="1">
          <mxGeometry x="1" y="0.5" width="16" height="16" relative="1" as="geometry">
            <mxPoint x="-18" y="-8" as="offset" />
          </mxGeometry>
        </mxCell>
        <mxCell id="f01kgrabDKH01E-QRtvR-26" value="" style="html=1;shadow=0;dashed=0;shape=mxgraph.atlassian.check;strokeColor=#ffffff;strokeWidth=2;sketch=1;hachureGap=4;pointerEvents=0;fontFamily=Architects Daughter;fontSource=https%3A%2F%2Ffonts.googleapis.com%2Fcss%3Ffamily%3DArchitects%2BDaughter;fontSize=20;" parent="f01kgrabDKH01E-QRtvR-24" vertex="1">
          <mxGeometry y="0.5" width="10" height="8" relative="1" as="geometry">
            <mxPoint x="6" y="-5" as="offset" />
          </mxGeometry>
        </mxCell>
        <mxCell id="f01kgrabDKH01E-QRtvR-27" value="New comments are added to your plans" style="text;html=1;strokeColor=none;fillColor=none;align=left;verticalAlign=middle;whiteSpace=wrap;rounded=0;" parent="f01kgrabDKH01E-QRtvR-23" vertex="1">
          <mxGeometry width="260" height="30" as="geometry" />
        </mxCell>
        <mxCell id="f01kgrabDKH01E-QRtvR-28" value="" style="group" parent="1" vertex="1" connectable="0">
          <mxGeometry x="105" y="450" width="320" height="30" as="geometry" />
        </mxCell>
        <mxCell id="f01kgrabDKH01E-QRtvR-29" value="" style="fillColor=#36B37E;strokeColor=none;rounded=1;arcSize=50;sketch=0;hachureGap=4;pointerEvents=0;fontFamily=Architects Daughter;fontSource=https%3A%2F%2Ffonts.googleapis.com%2Fcss%3Ffamily%3DArchitects%2BDaughter;fontSize=20;" parent="f01kgrabDKH01E-QRtvR-28" vertex="1">
          <mxGeometry x="280" y="10" width="40" height="20" as="geometry" />
        </mxCell>
        <mxCell id="f01kgrabDKH01E-QRtvR-30" value="" style="shape=ellipse;strokeColor=none;fillColor=#ffffff;sketch=0;hachureGap=4;pointerEvents=0;fontFamily=Architects Daughter;fontSource=https%3A%2F%2Ffonts.googleapis.com%2Fcss%3Ffamily%3DArchitects%2BDaughter;fontSize=20;" parent="f01kgrabDKH01E-QRtvR-29" vertex="1">
          <mxGeometry x="1" y="0.5" width="16" height="16" relative="1" as="geometry">
            <mxPoint x="-18" y="-8" as="offset" />
          </mxGeometry>
        </mxCell>
        <mxCell id="f01kgrabDKH01E-QRtvR-31" value="" style="html=1;shadow=0;dashed=0;shape=mxgraph.atlassian.check;strokeColor=#ffffff;strokeWidth=2;sketch=1;hachureGap=4;pointerEvents=0;fontFamily=Architects Daughter;fontSource=https%3A%2F%2Ffonts.googleapis.com%2Fcss%3Ffamily%3DArchitects%2BDaughter;fontSize=20;" parent="f01kgrabDKH01E-QRtvR-29" vertex="1">
          <mxGeometry y="0.5" width="10" height="8" relative="1" as="geometry">
            <mxPoint x="6" y="-5" as="offset" />
          </mxGeometry>
        </mxCell>
        <mxCell id="f01kgrabDKH01E-QRtvR-32" value="New events are added to your plans" style="text;html=1;strokeColor=none;fillColor=none;align=left;verticalAlign=middle;whiteSpace=wrap;rounded=0;" parent="f01kgrabDKH01E-QRtvR-28" vertex="1">
          <mxGeometry width="260" height="30" as="geometry" />
        </mxCell>
        <mxCell id="4cn_EamAkaE-mrm0MEZz-1" value="" style="group" parent="1" vertex="1" connectable="0">
          <mxGeometry x="580" y="90" width="200" height="230" as="geometry" />
        </mxCell>
        <mxCell id="4cn_EamAkaE-mrm0MEZz-2" value="" style="rounded=0;whiteSpace=wrap;html=1;" parent="4cn_EamAkaE-mrm0MEZz-1" vertex="1">
          <mxGeometry width="200" height="230" as="geometry" />
        </mxCell>
        <mxCell id="4cn_EamAkaE-mrm0MEZz-3" value="" style="shape=image;html=1;verticalAlign=top;verticalLabelPosition=bottom;labelBackgroundColor=#ffffff;imageAspect=0;aspect=fixed;image=https://cdn2.iconfinder.com/data/icons/user-interface-169/32/about-128.png" parent="4cn_EamAkaE-mrm0MEZz-1" vertex="1">
          <mxGeometry x="19" y="20" width="30" height="30" as="geometry" />
        </mxCell>
        <mxCell id="4cn_EamAkaE-mrm0MEZz-4" value="View Profile" style="text;html=1;strokeColor=none;fillColor=none;align=center;verticalAlign=middle;whiteSpace=wrap;rounded=0;" parent="4cn_EamAkaE-mrm0MEZz-1" vertex="1">
          <mxGeometry x="50" y="20" width="80" height="30" as="geometry" />
        </mxCell>
        <mxCell id="4cn_EamAkaE-mrm0MEZz-5" value="" style="group" parent="4cn_EamAkaE-mrm0MEZz-1" vertex="1" connectable="0">
          <mxGeometry x="20" y="60" width="101" height="30" as="geometry" />
        </mxCell>
        <mxCell id="4cn_EamAkaE-mrm0MEZz-6" value="" style="sketch=0;pointerEvents=1;shadow=0;dashed=0;html=1;strokeColor=none;fillColor=#505050;labelPosition=center;verticalLabelPosition=bottom;verticalAlign=top;outlineConnect=0;align=center;shape=mxgraph.office.concepts.settings_office_365;" parent="4cn_EamAkaE-mrm0MEZz-5" vertex="1">
          <mxGeometry width="31" height="30" as="geometry" />
        </mxCell>
        <mxCell id="4cn_EamAkaE-mrm0MEZz-7" value="Settings" style="text;html=1;strokeColor=none;fillColor=none;align=center;verticalAlign=middle;whiteSpace=wrap;rounded=0;" parent="4cn_EamAkaE-mrm0MEZz-5" vertex="1">
          <mxGeometry x="41" width="60" height="30" as="geometry" />
        </mxCell>
        <mxCell id="4cn_EamAkaE-mrm0MEZz-8" value="" style="group" parent="4cn_EamAkaE-mrm0MEZz-1" vertex="1" connectable="0">
          <mxGeometry x="20" y="100" width="100" height="30" as="geometry" />
        </mxCell>
        <mxCell id="4cn_EamAkaE-mrm0MEZz-9" value="" style="shape=image;html=1;verticalAlign=top;verticalLabelPosition=bottom;labelBackgroundColor=#ffffff;imageAspect=0;aspect=fixed;image=https://cdn0.iconfinder.com/data/icons/google-material-design-3-0/48/ic_exit_to_app_48px-128.png" parent="4cn_EamAkaE-mrm0MEZz-8" vertex="1">
          <mxGeometry width="30" height="30" as="geometry" />
        </mxCell>
        <mxCell id="4cn_EamAkaE-mrm0MEZz-10" value="Log out" style="text;html=1;strokeColor=none;fillColor=none;align=center;verticalAlign=middle;whiteSpace=wrap;rounded=0;" parent="4cn_EamAkaE-mrm0MEZz-8" vertex="1">
          <mxGeometry x="40" width="60" height="30" as="geometry" />
        </mxCell>
        <mxCell id="4cn_EamAkaE-mrm0MEZz-11" value="contact us" style="text;html=1;strokeColor=none;fillColor=none;align=center;verticalAlign=middle;whiteSpace=wrap;rounded=0;" parent="4cn_EamAkaE-mrm0MEZz-1" vertex="1">
          <mxGeometry x="60" y="140" width="80" height="30" as="geometry" />
        </mxCell>
        <mxCell id="4cn_EamAkaE-mrm0MEZz-12" value="" style="whiteSpace=wrap;html=1;shape=mxgraph.basic.oval_callout" parent="4cn_EamAkaE-mrm0MEZz-1" vertex="1">
          <mxGeometry x="20" y="140" width="34" height="20" as="geometry" />
        </mxCell>
        <mxCell id="1v3kZlypCC0D1mp3rTYm-1" value="" style="group" vertex="1" connectable="0" parent="1">
          <mxGeometry x="105" y="490" width="320" height="30" as="geometry" />
        </mxCell>
        <mxCell id="1v3kZlypCC0D1mp3rTYm-2" value="" style="fillColor=#36B37E;strokeColor=none;rounded=1;arcSize=50;sketch=0;hachureGap=4;pointerEvents=0;fontFamily=Architects Daughter;fontSource=https%3A%2F%2Ffonts.googleapis.com%2Fcss%3Ffamily%3DArchitects%2BDaughter;fontSize=20;" vertex="1" parent="1v3kZlypCC0D1mp3rTYm-1">
          <mxGeometry x="280" y="10" width="40" height="20" as="geometry" />
        </mxCell>
        <mxCell id="1v3kZlypCC0D1mp3rTYm-3" value="" style="shape=ellipse;strokeColor=none;fillColor=#ffffff;sketch=0;hachureGap=4;pointerEvents=0;fontFamily=Architects Daughter;fontSource=https%3A%2F%2Ffonts.googleapis.com%2Fcss%3Ffamily%3DArchitects%2BDaughter;fontSize=20;" vertex="1" parent="1v3kZlypCC0D1mp3rTYm-2">
          <mxGeometry x="1" y="0.5" width="16" height="16" relative="1" as="geometry">
            <mxPoint x="-18" y="-8" as="offset" />
          </mxGeometry>
        </mxCell>
        <mxCell id="1v3kZlypCC0D1mp3rTYm-4" value="" style="html=1;shadow=0;dashed=0;shape=mxgraph.atlassian.check;strokeColor=#ffffff;strokeWidth=2;sketch=1;hachureGap=4;pointerEvents=0;fontFamily=Architects Daughter;fontSource=https%3A%2F%2Ffonts.googleapis.com%2Fcss%3Ffamily%3DArchitects%2BDaughter;fontSize=20;" vertex="1" parent="1v3kZlypCC0D1mp3rTYm-2">
          <mxGeometry y="0.5" width="10" height="8" relative="1" as="geometry">
            <mxPoint x="6" y="-5" as="offset" />
          </mxGeometry>
        </mxCell>
        <mxCell id="1v3kZlypCC0D1mp3rTYm-5" value="All participants finish voting on an item / poll" style="text;html=1;strokeColor=none;fillColor=none;align=left;verticalAlign=middle;whiteSpace=wrap;rounded=0;" vertex="1" parent="1v3kZlypCC0D1mp3rTYm-1">
          <mxGeometry width="260" height="30" as="geometry" />
        </mxCell>
      </root>
    </mxGraphModel>
  </diagram>
</mxfile>
